<?xml version="1.0" encoding="UTF-8"?>
<svg version="1.1" viewBox="0 0 1600 1600" width="1280" height="1280" xmlns="http://www.w3.org/2000/svg">
<path transform="translate(540,109)" d="m0 0h546l19 3 40 10 13 5 8 4 9 4 22 12 12 9 11 8 9 8 5 5 5 4 5 6 5 4 18 24 7 11 9 15 12 25 9 31 4 25 1 17v505l-1 30-1 7-1 11-2 12-1 1-1 9-3 8-4 13-11 26-8 15-11 16-8 11-11 13-9 10-11 10-11 9-13 10-14 9-13 8-8 5-11 4h-10l-2 5-5 1h-5l-3 2-7 2-11 3h-8v2l-9 1-7-1-3 1-1 2-7 1h-208l-24-3-5-1-27-6-7-3-7-4-15-5-10-7-6-4-7-3-1-4-6-2-9-5-5-5-3-4h263l71-1 4-2h15l2-2 9-2 2-1h7l3 1v-3l5-2h6l2-4h6l5-5 9-4 10-4 5-4 5-2 1-3 12-9h6v-5l10-8 6-7 4-2 1-7 8-5 3-7 6-7 10-21 6-10 7-20 5-18 1-12v-513l-2-24-3-12-5-15-7-17-8-16-7-11-10-14-11-13-17-17-20-15-11-7-16-8-27-11-22-6-10-2-39-1h-447l-38 1-21 5-25 8-27 13-11 7-13 10-11 9-12 11-8 10-5 5-6 8-9 13-11 23-10 23-5 28-2 21-1 322-6-5-10-13-7-10-5-8-7-12-4-9-9-21-4-15-5-24-1-11v-199l1-25 6-33 6-20 10-27 10-19 7-11 6-9 6-7 6-8 9-11 11-11 8-7 11-9 12-8 6-5 17-8 5-4 17-7 9-4 18-5 23-6z" fill="#002FF0"/>
<path transform="translate(581,200)" d="m0 0h454l18 1 16 3 21 7 20 8 16 9 13 10 11 8 13 13 7 8 8 11 10 17 6 10 7 18 5 26 1 10v472l-2 20-6 25-9 20-8 13-9 16-4 4-3 1-1 5-7 7-5 2-3 5-5 6-5 2-6 6-7 3-8 7-6 2-7 3-5 3-10 5h-8l-11 4-7 2-2 2h-15l-3 3h-364l-12-24-3-11-1-13-4-7v-2l372-1 15-5 10-1 10-4 4-3 16-8 8-7 10-7h2l2-4 5-5 4-6 6-7 3-5 7-10 8-19 2-7 3-22v-433l-3-22-4-13-8-18-7-11-8-11-11-12-13-11-14-9-19-10-21-6-5-1-14-1h-422l-18 2-22 6-15 8-11 7-11 8-8 6-5 5-10 12-10 16-10 19-4 14-2 16-1 51-1 314-1 1-12-1-18-6-13-4-15-8-2-4v-358l4-23 6-23 5-10 5-13 14-21 8-10 12-14 11-10 11-8 13-9 14-7 13-5 24-8 15-3z" fill="#2E02E2"/>
<path transform="translate(606,294)" d="m0 0h405l17 2 12 4 16 7 14 9 10 7 8 9 7 8 7 11 5 12 6 18 2 15v354l-1 20-1 45-2 2-2 7-5 6v9l-5 10-9 12-14 14-12 9-7 3-1 5-6-1-4 3-9 3-2 1-12 1v2l-26 1h-352l2-15 4-12 9-24 6-12 333-1 5-2 6 1 1-3 7-2 16-14 7-9 6-16 1-5-1-356-1-21-2-9-8-16-5-6-8-6-11-7-9-4-4-1-36-1h-332l-14 2-6 4-8 3-9 7-5 4-9 13-5 10-3 15-1 20-1 301-5 4-21 7-25 7-13 2-1-1-1-82v-278l3-21 6-18 8-14 9-12 11-12 7-6 11-7 16-8 19-6z" fill="#0293E3"/>
<path transform="translate(623,396)" d="m0 0h369l8 2 11 7 4 8 3 10v148l-1 17-1 57-1 120-1 25-3 8-7 6-9 5-10 1h-10l-2 2h-281l5-5 14-12 5-5 5-4 15-9 21-14 5-3 9-2 9-6 8-4 14-4 5-3 17-4 11-1 7-2 9 1 1-3 5-1 11-1 3-1 22-1h36v-143l1-1v-8l-1-3v-91l-245 1v53l-1 22-5 30-12 32-8 17-6 12-9 15-6 8-4 8-9 10-7 9-13 16h-2l-1-6-1-164v-125l3-9 6-7 11-7z" fill="#2D00E3"/>
<path transform="translate(1206,536)" d="m0 0h1v295l-2 20-6 25-9 20-8 13-9 16-4 4-3 1-1 5-7 7-5 2-3 5-5 6-5 2-6 6-7 3-8 7-6 2-7 3-5 3-10 5h-8l-11 4-7 2-2 2h-15l-3 3h-364l-12-24-3-11-1-13-4-7v-2l372-1 15-5 10-1 10-4 4-3 16-8 8-7 10-7h2l2-4 5-5 4-6 6-7 3-5 7-10 8-19 2-7 3-22 1-13h2l1-13 1-10 2-2 1 3 1 7 5 1h2l1-4 6-2v2l15-5 11-1 5 8v3h3z" fill="#7F4BB3"/>
<path transform="translate(1114,396)" d="m0 0h1v354l-1 20-1 45-2 2-2 7-5 6v9l-5 10-9 12-14 14-12 9-7 3-1 5-6-1-4 3-9 3-2 1-12 1v2l-26 1h-352l2-15 4-12 9-24 6-12 333-1 5-2 6 1 1-3 7-2 16-14 7-9 6-16 1-5v-339h1v281h2l2-5 4-8 5-4h6l5 2 6-1 3 2h4l5-5h13v-2h2l1-5 4-3 1-4 1-21z" fill="#469DB7"/>
<path transform="translate(1254,377)" d="m0 0h1l1 475 4-2 12 1 3-13 3-3 3 2 1 11 1 7h3l1-3h2l1-4 4-7v-5l6 4 2 9 4 7 2-1v19l-1 7-1 11-2 12-1 1-1 9-3 8-4 13-11 26-8 15-11 16-8 11-11 13-9 10-11 10-11 9-13 10-14 9-13 8-8 5-11 4h-10l-2 5-5 1h-5l-3 2-7 2-11 3h-8v2l-9 1-7-1-3 1-1 2-7 1h-208l-24-3-5-1-27-6-7-3-7-4-15-5-10-7-6-4-7-3-1-4-6-2-9-5-5-5-3-4h263l71-1 4-2h15l2-2 9-2 2-1h7l3 1v-3l5-2h6l2-4h6l5-5 9-4 10-4 5-4 5-2 1-3 12-9h6v-5l10-8 6-7 4-2 1-7 8-5 3-7 6-7 10-21 6-10 7-20 5-18 1-12z" fill="#638EB2"/>
<path transform="translate(1270,247)" d="m0 0 3 1v2l6 4 2-3 6-1 8 16 9 31 4 25 1 17v505l-1 11-2 3-6-12-1-6-4-3-1 6-5 9h-2l-1 4-3-1-2-7-1-11-2-1-3 7-2 6-1 2h-12l-4 1-1-9-1-466-2-38-3-18-9-25-15-30v-6l5-2h7l3-2 4 2 16-4 2-4 3 2-1-4 2 1v2h3z" fill="#0450DA"/>
<path transform="translate(1017,423)" d="m0 0h1v148l-1 17-1 57-1 120-1 25-3 8-7 6-9 5-10 1h-10l-2 2h-281l5-5 14-12 5-5 5-4 15-9 21-14 5-3 9-2 9-6 8-4 14-4 5-3 17-4 11-1 7-2 9 1 1-3 5-1 11-1 3-1 22-1h36v-143l1-1v-8l-1-3v-8l2 1 1 9v10l-1 1v7l4 1 1 5 8 1v2h3l2 2 5 2 4 1 3-2h3v2l8 1v2l7-1 3-2h4v2l8-2 4 1h4l3-1 2-2h3 2l1-2 1-15 1-2 1-17z" fill="#7E4BB3"/>
<path transform="translate(718,506)" d="m0 0 182 1 1 3-1 112-1 62-1 5-2 1h-157v-2l8-7 27-27 11-12h2l2-4 7-7 7-8 12-12 4 2 8 9h12l4-26 7-32v-6l-34 5-37 4 1 6 7 9 7 6-1 5-8 7-23 23-8 7-7 8-16 15-12 12h-1l-1-28v-130zm167 58-8 4-15 3 1 5 7 5 1 4 1 13 7 6 5 7 3-1v-46z" fill="#2C01E3"/>
<path transform="translate(1174,571)" d="m0 0 8 4 2 6 2 1 1 5 3 3h2v2h3l2 2 1 7 1 1 3 16 1 2h2v-8h1v150l-1 31h-3l-5-9v-2l-15 3-8 3h-3v-2l-6 3-1 3-7 1-2-10h-1l-1 17-2 6h-2v-194l1-8h3l1 7 1 1 4-13 1-9 3-7 2 1 1 3 2-1 2-5 3-1z" fill="#660EBE"/>
<path transform="translate(899,562)" d="m0 0h1v60l-1 62-1 5-2 1h-157v-2l8-7 27-27 11-12h2l2-4 7-7 7-8 12-12 4 2 8 9h12l4-26 2-4 5-2 3-4 3-2h3l5 1 3 2 2 4 2 1v-7h1l1 13 7 6 4 6h2l1-45h1v15h5l1 3h3z" fill="#063ACA"/>
<path transform="translate(1308,386)" d="m0 0h1v458l-1 11-2 3-6-12-1-6-4-3-1 6-5 9h-2l-1 4-3-1-2-7-1-11-2-1-3 7-2 6-1 2h-12l-4 1-1-9v-153l1-5 4-4 1-3h2l1-7 3-11h3l2-8 3-1 2-2h3 2l1-3 4 1 4-5 3 3 2 1 4 13 4 17 2 9 1-11z" fill="#0B70C5"/>
<path transform="translate(1017,423)" d="m0 0h1v148l-1 17-1 57-2 67-1 9-3-2-3-3-9-1-1 3-8 3-11 1v2l-26 4-1 3h-7l-7-1h-7l-1-1v-144l1-1v-8l-1-3v-8l2 1 1 9v10l-1 1v7l4 1 1 5 8 1v2h3l2 2 5 2 4 1 3-2h3v2l8 1v2l7-1 3-2h4v2l8-2 4 1h4l3-1 2-2h3 2l1-2 1-15 1-2 1-17z" fill="#6711BF"/>
<path transform="translate(319,331)" d="m0 0h1v127h1l1 14 1 26 1 7h5l3-7 5 1 4 1 1 4h8l3 2 4-3 2 2 1-2h2l3 9 4 21v4l2 1 2 3 1-123 1-47h1v312l-6-5-10-13-7-10-5-8-7-12-4-9-9-21-4-15-5-24-1-11v-199z" fill="#0853D8"/>
<path transform="translate(1289,493)" d="m0 0h3l2 2 4 14 1 3v8h2l3 25 2 11 1-13h1v131l-1 15-2-4-3-13-5-20-1-6-6-2-4 4-3-1-3 3-5 2h-3l-1 8-3 1-3 10-2 7h-2l-1 4-2 5-3 3v-125l1-21 4 2 1-6h2v-11l1-1 2-13 2-3 2 1 1-9h3l1-4h8l5-5z" fill="#0261CD"/>
<path transform="translate(1149,932)" d="m0 0h11l4 4-6 6-5 2-3 5-5 6-5 2-6 6-7 3-8 7-6 2-7 3-5 3-10 5h-8l-11 4-7 2-2 2h-15l-3 3h-288v-1l168-1 4-1-4-2 3-1 2-2 13-4 15-1 3-2h8l13-2 16-2h7l5-3 14-2 7-3 14-4 10-2 10-3-1-4 6 1 9-3 14-3 5-2 8-2 3-1-2-2 6-2h3l-1 3 7-1 5-2 1-3 3-2 7-2 1-1h6l2 2z" fill="#8B69B1"/>
<path transform="translate(1437,1159)" d="m0 0h45l7 3 3 4 1 3v90l-3 5-7 4-19 1h-12v71h-15zm31 16-15 1v75l1 1h24l1-3v-71l-2-3z" fill="#FDFDFD"/>
<path transform="translate(539,1159)" d="m0 0h47l5 5 3 6v88l-7 9-1 1-31 1-1 71h-15zm15 15v79h25v-79z" fill="#FCFCFD"/>
<path transform="translate(1308,386)" d="m0 0h1v458l-1 11-2 3-6-12-1-6-4-3-1 6-5 9h-2l-1 4-3-1-2-7-1-11-2-1-3 7-2 6-1 2h-12l-4 1-1-9v-67l2-4h2l1-6 2-2 5 2 5-1 5-9 4-1 5 6v2h4v-2l3-2 5 1 5 12 1 8 2 4 1-9z" fill="#2E7ABF"/>
<path transform="translate(1290,1082)" d="m0 0h15l1 1v76h31l5 2 3 9 1 98-5 1-9-1-1-60v-34h-25v94l-15 1-1-1z" fill="#FEFEFE"/>
<path transform="translate(177,1319)" d="m0 0h35l10 1 2 4v148l-3 7-2 1h-42zm26 13-14 1v132l1 1h22v-134z" fill="#FEFEFE"/>
<path transform="translate(899,562)" d="m0 0h1v60l-1 62-1 5-2 1h-157v-2l8-7 22-22 3-1-2 4-2 1-1 4 8 1h6l4 4 9 1 24-7 14-4 21-5 12-3 13-4 8-7h6l2-6 3-4z" fill="#0551DA"/>
<path transform="translate(730,1386)" d="m0 0h26l3 3 4-2 1-1h29l6 3 3 3v89h-12l-1-1v-81h-23v81l-1 1h-11l-1-1v-81h-23v82h-13l-1-1v-78l1-10 6-5z" fill="#FBFCFC"/>
<path transform="translate(923,1159)" d="m0 0h37l6 2 3 9 1 1v39l-5 9-3 2-6 1h-25v30l24 1v-17l2-1h12l1 1v19l-3 7-3 5-2 1h-39l-5-5-3-4-1-4v-82l4-10zm7 16v30h25v-30z" fill="#F6F7FA"/>
<path transform="translate(453,1159)" d="m0 0h35l7 1 3 5 1 13v31l-2 8-4 3-3 1h-31l1 31 24 1v-17l14-1 1 1v20l-2 7-4 4-3 1-26 1-10-1-9-7-1-2-1-39v-42l2-11 3-5zm13 15-7 1v30h25v-30l-7-1z" fill="#FDFDFD"/>
<path transform="translate(735,1159)" d="m0 0h38l6 4 3 9v35l-2 9-7 5-12 1h-20v31h26v-18h14l1 1v19l-2 7-7 6h-37l-10-7-1-26v-59l2-10 4-5zm5 15v31l25 1 2-1 1-30-1-1z" fill="#FDFDFD"/>
<path transform="translate(93,1082)" d="m0 0h44v15l-1 1h-29v61h30v15h-30v79h30v15l-43 1-1-1-1-184z" fill="#FEFEFE"/>
<path transform="translate(1204,1159)" d="m0 0h36l9 3 2 4 1 12v14l-1 1h-14l-1-1 1-17-26-1v31h27l8 2 5 5 1 6v33l-1 10-5 5-4 2-16 1h-16l-6-2-7-5-1-2-1-22 1-3 15 1v16l25 1v-29l1-2h-30l-10-6-1-2-1-14v-25l2-9 5-6z" fill="#FDFDFD"/>
<path transform="translate(1133,1328)" d="m0 0h26l11 4 2 2v32h-13v-24h-23v136l23-1v-46h13v50l-3 5-8 4h-29l-5-3-4-6v-145l3-5z" fill="#FDFDFD"/>
<path transform="translate(636,1386)" d="m0 0h35l10 2 3 4v79l-3 7-2 2-10 1h-21v61h-12zm12 13v68l21 1 1-1 1-68z" fill="#F6F8FA"/>
<path transform="translate(184,1159)" d="m0 0h36l6 4 4 7 1 12v86l-1 1h-13l-2-1-1-93h-25l-1 93-5 1-9-1v-98l4-9z" fill="#FEFEFE"/>
<path transform="translate(1009,1159)" d="m0 0h14v94h25v-94h16v96l-3 8-5 5h-39l-7-7-1-4z" fill="#FDFDFD"/>
<path transform="translate(828,1159)" d="m0 0h36l8 2 3 7 1 99-2 2-13-1-1-93h-26v93l-1 1h-13l-1-1v-97l4-8z" fill="#FDFDFD"/>
<path transform="translate(1214,1394)" d="m0 0h29l8 4 2 6v34l-2 6-4 3-14 1h-16l1 2v28l21-1 1-15 4-1h7l2 1v15l-2 8-5 4-3 1h-29l-7-3-2-2-1-5v-79l5-5zm4 14-1 3v25h23v-27l-1-1z" fill="#F5F5F9"/>
<path transform="translate(847,1386)" d="m0 0h19l11 1 6 4 1 3v36l-2 5-9 4h-24v28h23v-14h11l1 1v14l-2 8-5 4-5 1h-25l-8-2-4-7v-78l4-6zm2 13v26l1 1h21l1-6v-20l-1-1z" fill="#FDFDFD"/>
<path transform="translate(434,1386)" d="m0 0h33l7 3 1 1v44l-5 3-4 1-26 1v27h22l1-14h12v21l-3 5-4 2h-33l-5-2-3-5-1-11v-62l1-10 3-3zm5 13v25l1 1h22v-26z" fill="#FBFCFD"/>
<path transform="translate(266,1386)" d="m0 0h34l5 4 1 2 1 13v22l-2 7-3 3-3 1h-29v29l24-1v-14l12-1 1 1v13l-2 10-5 5h-34l-6-4-2-6v-78l5-5zm4 13v26h24v-26z" fill="#F6F7FA"/>
<path transform="translate(288,1124)" d="m0 0h15v35h21v15h-21v94l-1 1h-14l-1-7v-87l-21-1v-15h22l-1-14v-20z" fill="#FEFEFE"/>
<path transform="translate(578,1386)" d="m0 0 19 1 4 3 1 5v73l-1 8-4 4-7 1h-25l-7-2-3-3-1-4v-79l3-5 2-1zm-12 13v68h23v-68z" fill="#FAFBFC"/>
<path transform="translate(359,1159)" d="m0 0h36l7 2 3 7 1 24-1 1h-9l-5-1v-18l-25 1-1 93-1 1h-14l-1-1v-96l4-8z" fill="#FEFEFE"/>
<path transform="translate(922,1387)" d="m0 0h40l3 3 1 3v88h-11l-1-1v-81l-22 1v80l-1 1h-12v-91z" fill="#F7F8FB"/>
<path transform="translate(1112,1159)" d="m0 0h35l8 3 3 9v21l-1 1h-11l-4-1v-17h-25v93l-1 1h-10l-4-1v-99l3-7z" fill="#FEFEFE"/>
<path transform="translate(1017,1355)" d="m0 0h14l1 1 1 30h12l2 1v12h-15v81l-1 1h-14v-82h-17l-1-1v-11l4-1h14z" fill="#FCFCFD"/>
<path transform="translate(642,1159)" d="m0 0h37l5 3 3 5 2 7v18l-1 1h-12l-3-1-1-17h-25l-1 93-2 1h-10l-1-1v-97l3-9z" fill="#FDFDFD"/>
<path transform="translate(341,1386)" d="m0 0h12l2 6 5 32 2 19 4-1 6-37 2-18 1-1h13l1 2-5 24-5 29-5 26-2 13h-13l-3-9-7-30-7-45z" fill="#FDFDFD"/>
<path transform="translate(1286,1327)" d="m0 0 12 1v162l-4 1-9-1v-162z" fill="#FEFEFE"/>
<path transform="translate(507,1320)" d="m0 0h13v160l-1 1h-12l-1-160z" fill="#FEFEFE"/>
<path transform="translate(1332,1328)" d="m0 0h12l1 3-1 159-7 1-5-1z" fill="#FEFEFE"/>
<path transform="translate(1384,1159)" d="m0 0h15v109l-3 1h-11l-1-1z" fill="#EEEFF6"/>
<path transform="translate(871,729)" d="m0 0h19l3 1v2l-9 1h-4v2l-9 1-8 1v2l-6 4-11 1-5 3-8-1-1 3v1l2 1-7 4-3 2-20 2-1-3 7-2-4-1-5 1v2 1l2 3-3 1-2 2-1-1-5 5-7 1-2-4-3-1h-4v2l-7 3-7 1-4 3-4-1 1-4 5-6 13-4 5-4 10-5 14-4 5-3 17-4 11-1 7-2 9 1 1-3 5-1 11-1z" fill="#6916BE"/>
<path transform="translate(1290,1082)" d="m0 0h15l1 1v76h31l5 2 3 9 1 98-5 1-9-1-1-60v-34h-25v94l-15 1-1-1zm3 2-1 1v182h11v-94l7-1h20l3 2 1 93h10v-93l-2-5-2-7-2-1-32-1-2-2v-53l-1-20-1-1z" fill="#3458BF"/>
<path transform="translate(93,1082)" d="m0 0h44v15l-1 1h-29v61h30v15h-30v79h30v15l-43 1-1-1-1-184zm3 2v183h38l1-11-1-2h-29l1-3 1-78 5-1 23-1v-8l-1-2h-29l1-2v-64h15l14-1v-9l-1-1z" fill="#406FBA"/>
<path transform="translate(184,1159)" d="m0 0h36l6 4 4 7 1 12v86l-1 1h-13l-2-1-1-93h-25l-1 93-5 1-9-1v-98l4-9zm-1 2-4 2-3 7-1 19v77l1 1h9l1-2v-92l6-1h20l4 2 1 93h10v-97l-5-8-6-1z" fill="#3B58BD"/>
<path transform="translate(828,1159)" d="m0 0h36l8 2v3l-6-2h-37l-4 2-2 6-1 97h10v-93l3-2 6-1h18l4 4 1 3v89l9-1 1-98h1l1 99-2 2-13-1-1-93h-26v93l-1 1h-13l-1-1v-97l4-8z" fill="#2F5DBF"/>
<path transform="translate(535,840)" d="m0 0h8l2 2v17l-5 4-19 9-2 3 15-1 7-1v5l-7 6-9 1-8-3-8-6-3-5 2-12 4-6 7-4 4-6 5-2zm-2 12-9 5-3 3 1 2 10-5 5-5z" fill="#F0F2F8"/>
<path transform="translate(1437,1159)" d="m0 0h45l6 2v1l-48-1v177l9-1 1-69 2-1 28-2 8-3 2-3 1-93 2 3v90l-3 5-7 4-19 1h-12v71h-15z" fill="#628CB2"/>
<path transform="translate(717,571)" d="m0 0h1l1 44 1 12 8-4 15-3h6v2l4 1 6-2 4 1-9 8-7 8-16 15-12 12h-1l-1-28z" fill="#0C40C8"/>
<path transform="translate(923,1159)" d="m0 0h37l6 2 3 9 1 1v39l-5 9-3 2-6 1h-25v30l24 1v-17l2-1h12l1 1v19l-3 7-3 5-2 1h-39l-5-5-3-4-1-4v-82l4-10zm2 2-5 3-2 3-1 14v60l1 17 4 6 6 3h23l8-2 6-3 2-9v-12l-1-3h-9l-1 1v12l1 3h-28v-34h27l7-1 3-3v-51l-2-3-5-1z" fill="#5275B7"/>
<path transform="translate(331,819)" d="m0 0 7 1 1 2-6 17-3 7 7-2 4-2 8 6 4 6 1 3v15l-5 9-5 2-1-5 2-5 1-12-1-6h-14l-6 7-9 15-3 3-6-1-1-2 3-5 3-8 10-19 6-18z" fill="#FEFEFE"/>
<path transform="translate(546,920)" d="m0 0h13l1 7 5 2-2 7-5 8-2 7h15l2 1-1 4-8 3h-7l-7-7-4 1-3 3h-6l-4 3-5-1-6-4v-5l6-11 6-7 6-5 2-4zm4 9-6 3-5 8-5 4-2 3v3l5-1 12-8 6-9v-3z" fill="#ECF0F7"/>
<path transform="translate(359,1159)" d="m0 0h36l7 2 3 7 1 24-1 1h-9l-5-1v-18l-25 1-1 93-1 1h-14l-1-1v-96l4-8zm4 2-7 3-4 8v95h10l1-93 9-2h18l2 3 1 15 1 1h9l1-2-1-23-3-4-4-1z" fill="#6080B4"/>
<path transform="translate(435,840)" d="m0 0 8 1 5 4 4 7v11l-6 8-8 6-15 5-4-1-3-10v-14l4-8 8-7zm0 12-5 3-3 5-1 9-1 3h4l8-5 5-5 1-6-2-4z" fill="#E9ECF5"/>
<path transform="translate(177,1319)" d="m0 0h35l10 1 2 4v148l-3 7-2 1h-42zm2 2-1 42v76l1 39h41l1-1v-155l-2-1z" fill="#354DBF"/>
<path transform="translate(1009,1159)" d="m0 0h14v94h25v-94h16v96l-2 4v-97l-12-1v93h-29l-1-92-9-1 1 99 4 3 12 3h24l6-3 3-2-2 4-3 3h-39l-7-7-1-4z" fill="#4666BB"/>
<path transform="translate(1332,1328)" d="m0 0h12l1 3-1 159-7 1-5-1zm2 3v157h7l1-155-1-2z" fill="#2653C1"/>
<path transform="translate(898,647)" d="m0 0h1v37l-1 5-2 1h-100v-1l16-1 1-1 21-2 13-1 13-3 7-1 13-3 4-4 5-1v2h2l-1-3 3-7h3l1 2z" fill="#2F7BBF"/>
<path transform="translate(386,840)" d="m0 0 8 1 7 8 1 2v10l-6 11-8 5-9 6-4-1-6-8-1-3v-13l4-8 5-6 5-3zm-1 12-4 5-5 13 1 4 8-4 10-9 1-7-2-2z" fill="#E2E6F2"/>
<path transform="translate(481,839)" d="m0 0 10 3 3 3v6l-1 1-18 1 9 5 4 3 7 3 2 2 1 9-4 5-8 4-3 1h-7l-9-3v-6l1-1 22-1v-3l-7-6-18-5-1-1v-8l7-8z" fill="#E2E7F2"/>
<path transform="translate(311,919)" d="m0 0 4 2 3 7 1 1 1 10-13 14-8 5-8 1-6-7v-18l2-6 5-5 8-3zm-6 9-8 7-3 9 1 5 7-3 10-8 2-5-4-5z" fill="#F8F9FB"/>
<path transform="translate(463,927)" d="m0 0 7 2 1 2-1 9-2 1v3l6 1 1-5 3-9 7 1 1 2-2 8v8l2 3 11-2 7-8 4-9 4 1-1 11-5 8-8 4-3 1h-12l-4-2-3-9-9 7-7 4h-4v-7l6-24z" fill="#D3D9EC"/>
<path transform="translate(269,923)" d="m0 0 3 2-3 10-3 9-1 7-5 2-6 26-2 3-2 6-5-2-1-1v-7l3-13 1-9-7-3-2-9-2-3v-8l3-3 2-6h4v23h10l10-22z" fill="#4460BB"/>
<path transform="translate(730,1386)" d="m0 0h26l1 2-33 2-3 2-1 86h6l1-78 3-1v82h-13l-1-1v-78l1-10 6-5z" fill="#7081B1"/>
<path transform="translate(1112,1159)" d="m0 0h35l8 3 3 9v9l-2-3-4-13v-2h-40l-6 1-1 4-1 30v41l1 28h8v-34l1-58 3-2 5-1h17l6 3 1 16h11v-8h1v10l-1 1h-11l-4-1v-17h-25v93l-1 1h-10l-4-1v-99l3-7z" fill="#456CBA"/>
<path transform="translate(1133,1328)" d="m0 0h26l11 4 2 2v6h-1l-1-5-7-3h-30l-5 2-1 2v146l2 4 5 1h26l7-3 4-3-1 4-6 4-3 1h-29l-5-3-4-6v-145l3-5z" fill="#063AC9"/>
<path transform="translate(642,1159)" d="m0 0h37l5 3 3 5 2 7v18l-1 1h-12l-3-1-1-17h-25l-2 1 1-4 1-1h24l3 2 2 17h9v-3l-1-20-2-4-4-1h-34l-5 2-2 4-1 7-1 92 8-1 1-2 1-84h1v88l-2 1h-10l-1-1v-97l3-9z" fill="#6C85B1"/>
<path transform="translate(191,1331)" d="m0 0h23v137l-1 1h-14l-11-1-1-2v-134zm12 1-14 1v132l1 1h22v-134z" fill="#647EB3"/>
<path transform="translate(586,924)" d="m0 0h3l1 6-1 3 1 6 1 7 9 2 2-6 4-5 3 1 2 10-2 3h-2l-6 15-3 13-1 1-1 7-4 1-2-2v-18l2-3 1-6-3-5-5-6-3-6 1-8z" fill="#E3E6F2"/>
<path transform="translate(291,840)" d="m0 0 8 2 1 3-1 8-3 1-3-1h-8l-4 4-5 8v7l3 2 17 1-1 4-6 4h-7l-8-3-6-5-1-2v-10l5-10 9-9 6-3z" fill="#FBFBFC"/>
<path transform="translate(539,1159)" d="m0 0h47l5 5 3 6v88l-7 9-1 1h-30v-1l25-2 7-3 3-6v-83l-5-10-4-1h-41v175h13v3h-15z" fill="#2D4EC1"/>
<path transform="translate(434,1386)" d="m0 0h33l7 3 1 1v44l-5 3-4-1h2v-2l5-1v-42l-3-1h-38l-2 1-1 43v27l1 14 6 2 24 1 10-1 2-2 1-4v-16l-10 1v-4h12v21l-3 5-4 2h-33l-5-2-3-5-1-11v-62l1-10 3-3z" fill="#435DBC"/>
<path transform="translate(319,331)" d="m0 0h1v127h1l1 14 1 67v28l-2 4-2-5-1-11v-199z" fill="#2860C4"/>
<path transform="translate(1451,1175)" d="m0 0h16v1l-13 1v74h24v-73l-1-3h4v77l-3 2h-25l-3-3v-74z" fill="#4A76B8"/>
<path transform="translate(376,918)" d="m0 0 7 1 2 8h6l8-6 8-3h8l3 2-2 4h-7l-10 8-5 5-2 5-3 2-1 9-4 2-3-1-2-23-3-9z" fill="#E8ECF4"/>
<path transform="translate(847,1386)" d="m0 0h19l11 1 6 4 1 7-4-5-4-3-8-1h-18l-10 2-1 2v80l4 4h33l3-1 2-5 2-3v6l-4 5-7 2h-25l-8-2-4-7v-78l4-6z" fill="#2A5AC0"/>
<path transform="translate(334,920)" d="m0 0 5 1 1 1v28l4 1 6-7 5-4 6-12 3-2 3 3 1 10-6 5-7 9-4 3h-12l-5-5z" fill="#7A95CA"/>
<path transform="translate(1214,1394)" d="m0 0h29l8 4 2 6v34l-2 2v-33l-2-6-4-3-7-2h-15l-16 4v81l2 4 8 2h25l5-2 3-5 1-4v-14h2v15l-2 8-5 4-3 1h-29l-7-3-2-2-1-5v-79l5-5z" fill="#455EBB"/>
<path transform="translate(964,1390)" d="m0 0 2 3v88h-11l-1-1-1-82h3l1 80 6 1v-88z" fill="#6879B2"/>
<path transform="translate(1491,1166)" d="m0 0 2 3v90l-3 5-7 4-19 1h-12v71h-15v-3h12l1-69 2-1 28-2 8-3 2-3z" fill="#345ABE"/>
<path transform="translate(554,1171)" d="m0 0h25l3 3v80h-19v-1h16v-79h-25v79h-2v-80z" fill="#5865B7"/>
<path transform="translate(1017,1399)" d="m0 0h3l2 79h9l-1-2v-77h2v81l-1 1h-14z" fill="#696BB4"/>
<path transform="translate(578,1386)" d="m0 0 19 1 4 3 1 9-3-2-1-7-11-1h-16l-13 1-1 30v33l1 22 3 2 37 1-1 2-7 1h-25l-7-2-3-3-1-4v-79l3-5 2-1z" fill="#496EB9"/>
<path transform="translate(1133,1342)" d="m0 0h3v136l-3-2z" fill="#3E6DBB"/>
<path transform="translate(828,1159)" d="m0 0h36l8 2v3l-6-2h-37l-4 2-2 6-1 98h-3v-97l4-8z" fill="#2853C1"/>
<path transform="translate(453,1159)" d="m0 0h35l7 1 1 2h-41l-5 1-2 5-2 13v19l1 1v13l-1 3v38l4 6 7 4 5 1h23l6-2 4 1-5 3-26 1-10-1-9-7-1-2-1-39v-42l2-11 3-5z" fill="#4061BC"/>
<path transform="translate(1286,1327)" d="m0 0 12 1v162l-4 1-9-1 1-3 10 1v-157h-10z" fill="#0539C9"/>
<path transform="translate(496,1162)" d="m0 0 2 3 1 13v31l-2 8-4 3-3 1h-31l1 31 24 1v-17l14-1 1 1v20l-2 7h-1v-25l-9 1-1 15h-28l-1-34 5-1h22l8-1 3-2z" fill="#3661BD"/>
<path transform="translate(1332,1328)" d="m0 0h12v4l-3 1v-2h-7v157h7l1 2-5 1-5-1z" fill="#638EB2"/>
<path transform="translate(507,1320)" d="m0 0h13v160l-1 1h-12l-1-160zm2 1-1 1v156l7 1 4-1v-156l-1-1z" fill="#6765B4"/>
<path transform="translate(1305,1122)" d="m0 0h1v37h31l5 2 3 9 1 98-5 1-9-1 1-76h1v75h10l-1-93-2-5-1-6-2-1-32-1-3-3v-16l1-16z" fill="#425BBC"/>
<path transform="translate(184,1159)" d="m0 0h36l6 4 4 7 1 11-1 56h-1l-1-51h-1l-1-16-4-7-6-1h-33l-3 1-3 7-1 19v77l1 2h-3v-98l4-9z" fill="#2D49C1"/>
<path transform="translate(244,949)" d="m0 0 14 1 2 1-3 15-3 13-2 3-2 6-5-2-1-1v-7l3-13 1-3v-8l-5-2z" fill="#FDFDFD"/>
<path transform="translate(1048,1159)" d="m0 0h16v96l-2 4v-97l-12-1v93h-29v-2l27 1z" fill="#6E7FB2"/>
<path transform="translate(360,1159)" d="m0 0h35l7 2 3 7 1 24-1 1h-9l-5-1v-18l-25 1-1 6h-2v51h-1v-58l4-2 6-1h18l3 4 1 15h9l-1-24-2-3-4-1-33-1z" fill="#3E66BC"/>
<path transform="translate(923,1159)" d="m0 0h37l6 2 3 9 1 1v39l-3 6h-1l-1-51-1-3h-39l-5 3-2 9v7l-1 5-2-3-1-2v-8l4-10z" fill="#4F76B7"/>
<path transform="translate(920,1389)" d="m0 0 2 3v87l7-1 1-79 2 3v78l-1 1h-12v-91z" fill="#6C84B1"/>
<path transform="translate(93,1082)" d="m0 0h44v15l-1 1h-29v61h29l-2 2h-29l1-66 15-1h14l-1-9-41-1z" fill="#3959BD"/>
<path transform="translate(1290,1082)" d="m0 0h15l1 1v39l-1 4-1 13h-1v-34l-1-20h-10l-1 183h-1z" fill="#648AB2"/>
<path transform="translate(136,1159)" d="m0 0h1v15h-30v79h30v15l-43 1-1-1v-7l3-1v7h38v-13h-29l1-81 4-2h25l-1-11z" fill="#7B57B3"/>
<path transform="translate(636,1386)" d="m0 0h35l10 2 3 4v79l-2 5h-1v-65l-1-20-2-1-10-1h-32z" fill="#0539CA"/>
<path transform="translate(643,1159)" d="m0 0h36l5 3 3 5 2 7v18l-1 1h-12l-3-1-1-17h-25l-2 1 1-4 1-1h24l3 2 2 17h9v-3l-1-20-2-4-4-1-35-1z" fill="#2747C2"/>
<path transform="translate(230,1182)" d="m0 0h1v86l-1 1h-13l-1-2h11v-81l2-1z" fill="#6C7AB2"/>
<path transform="translate(764,1386)" d="m0 0h29l6 3 3 3v89h-12l-1-1v-16h1v14h9v-85l-2-3-7-1h-27z" fill="#0639C9"/>
<path transform="translate(1112,1159)" d="m0 0h35l8 3 3 9v9l-2-3-4-13v-2h-40l-6 1-1 4-1 30v41l1 28 1 2h-4v-99l3-7z" fill="#3453BF"/>
<path transform="translate(874,1168)" d="m0 0h1l1 99-2 2-13-1 1-93 2 3v89l9-1z" fill="#6886B2"/>
<path transform="translate(1133,1328)" d="m0 0h26l11 4 2 2v6h-1l-1-5-7-3h-30l-5 2-1 2-1 142h-1l-1-137-1-5 3-5z" fill="#6789B1"/>
<path transform="translate(310,1171)" d="m0 0h14v3h-21v94l-1 1h-14l-1-5 4 1 10 2v-92l2-3z" fill="#4066BB"/>
<path transform="translate(1196,1211)" d="m0 0 1 2 4 2 4 3 33 1v35h-28l-1-1v-15h-13v-3l15 1v16l25 1v-29l1-2h-30l-10-6z" fill="#637AB3"/>
<path transform="translate(508,934)" d="m0 0 4 1-1 11-5 8-8 4-3 1h-12l-4-2-2-7 3 2v2l4 2 3 1-1-3 5-2 7-2 6-7z" fill="#849CCC"/>
<path transform="translate(266,1386)" d="m0 0h34l5 4 1 2 1 13v22l-2 7-3 3-3-1 4-3v-40l-2-3h-38l-3 3-1 11h-1v-12l5-5z" fill="#466DBA"/>
<path transform="translate(728,1399)" d="m0 0h2v81l-3-1-1-3 1-76z" fill="#0A3DC8"/>
<path transform="translate(1017,1355)" d="m0 0h14l1 1 1 30h12l2 1-1 3-3-1h-12l-1-3v-29h-8l-1 20-1 9-2 2-16 1v10l-3-1v-11l4-1h14z" fill="#2D58C0"/>
<path transform="translate(740,1171)" d="m0 0h28l3 4v31h-6l2-1v-30l-27-1v32h-1v-34z" fill="#4A70B9"/>
<path transform="translate(1240,1206)" d="m0 0 6 1 5 5 1 6v33l-1 10-5 5-4 2-16 1h-16l-6-2-5-5 9 3 10 1h11l9-1 9-3 2-8v-35l-2-7v-2l-5-2z" fill="#5A64B7"/>
<path transform="translate(375,1386)" d="m0 0h13l1 2-5 24-5 29-5 26-2 13h-13l-1-4 1 2h12v-10l4-24 2-7 3-14 3-22 2-13-8 2-2 7h-1v-10z" fill="#4263BB"/>
<path transform="translate(340,842)" d="m0 0 7 4 5 6 2 5v15l-5 9-5 2-1-5 2-5 1-12-1-6h-14l-5 4 2-5 6-3h11l3 3 1 10-1 9-2 7 5-8v-15l-3-5v-2h-2v-2l-6-2-1 1h-10l1-2 7-1z" fill="#567AB5"/>
<path transform="translate(305,1451)" d="m0 0 2 1v13l-2 10-5 5h-34l-6-4-1-6 7 7 8 1h19l7-1 3-4v-17l-7-1 1 4v7l-2 2-25 1v-3h24v-14z" fill="#314DC0"/>
<path transform="translate(363,926)" d="m0 0 4 3 1 10-6 5-7 9-3 2-4-2 1-5 5-5 7-15z" fill="#D5DDEE"/>
<path transform="translate(311,919)" d="m0 0 4 2 3 7 1 1 1 10-13 14-8 5-8 1-6-7v-18l2-6h2l-1 10v9l2 7 1 1h6l8-5 7-7 2-5 2-2v-6l-4-8h-11l-4 1 3-3z" fill="#6B8FC2"/>
<path transform="translate(680,1476)" d="m0 0v3l-1 1-10 1h-21v61h-12v-3h11l-1-9v-51l1-1 32-1z" fill="#646AB4"/>
<path transform="translate(341,1386)" d="m0 0h12l2 6 5 32 2 18-3-2-2-21-6-29v-2h-6l1 18 2 9 1 21h-1l-7-47z" fill="#4666BA"/>
<path transform="translate(539,1161)" d="m0 0 2 1v175h13v3h-15z" fill="#617DB4"/>
<path transform="translate(1384,1124)" d="m0 0h15v14h-15z" fill="#CAD0E4"/>
<path transform="translate(882,1430)" d="m0 0 1 4-10 5h-24v28h23v-14h11l1 4-1-2h-9v13l-5 1-22-1-1-9v-15l2-7 27-1 6-4z" fill="#1D4FC3"/>
<path transform="translate(1009,1159)" d="m0 0h14v93h-2l-1-90-9-1z" fill="#0639C9"/>
<path transform="translate(583,1398)" d="m0 0h9v69l-6 1 3-1v-68h-6z" fill="#4170BA"/>
<path transform="translate(563,1399)" d="m0 0h3v68h-2l-1-2z" fill="#6466B5"/>
<path transform="translate(434,1386)" d="m0 0h33l7 3 1 1v44l-5 3-4-1h2v-2l5-1v-42l-3-1-37-1z" fill="#5B74B5"/>
<path transform="translate(187,1198)" d="m0 0h1v70l-5 1-6-1v-1l8-1v-50l1-17z" fill="#6389B2"/>
<path transform="translate(752,1398)" d="m0 0 3 1v79l11-1-1 4h-11l-1-1z" fill="#3955BE"/>
<path transform="translate(1018,1400)" d="m0 0h2l2 79-3-1-1-7z" fill="#648CB1"/>
<path transform="translate(363,1181)" d="m0 0h2v79l-1 6h-1l-1-8v-26z" fill="#638BB2"/>
<path transform="translate(1204,1159)" d="m0 0h36l9 3 2 4 1 12v10h-1l-2-8-1-3-1-11-2-3-5-1h-34l-6 2-2 5-2 21h-1v-15l2-9 5-6z" fill="#2D55C0"/>
<path transform="translate(914,1181)" d="m0 0 2 2 1 3v55h-2v14h-1z" fill="#8C68B1"/>
<path transform="translate(242,924)" d="m0 0h4v23l4 2v1h-6v2l5 2-1 2-7-3-2-9-2-3v-8l3-3z" fill="#5672B8"/>
<path transform="translate(564,929)" d="m0 0 1 2-3 6-5 9-1 5h15l2 1-1 4-8 3h-7l-7-7 6-10 4-7z" fill="#476DB9"/>
<path transform="translate(461,1172)" d="m0 0h23l2 2v32h-5l3-1v-30h-25v30h21v1h-22v-33z" fill="#5167B8"/>
<path transform="translate(288,1148)" d="m0 0 3 1v9l-4 3h-19l1 10h18l3 3 1 2v6l-3 2-1-9-21-1v-15h22z" fill="#587EB5"/>
<path transform="translate(953,1398)" d="m0 0h3l1 80h4l-1 3h-5l-1-1z" fill="#638DB1"/>
<path transform="translate(739,1227)" d="m0 0 2 2v24h26v-18h14l1 4-11-1v13l-3 3h-29z" fill="#5672B7"/>
<path transform="translate(601,573)" d="m0 0h1l1 130 1 5h5l-4 6-3 1-1-6z" fill="#8060B6"/>
<path transform="translate(1451,1175)" d="m0 0h16v1l-13 1-1 71h-1l-1-32h-1v-39z" fill="#1D4EC3"/>
<path transform="translate(1114,1212)" d="m0 0 2 1 1 55-1 1h-10v-2l7-1v-34z" fill="#587DB5"/>
<path transform="translate(360,1159)" d="m0 0h35l7 2 3 7 1 24-1 1h-9l-5-1v-4h2l1 2h9l-1-24-2-3-4-1-33-1z" fill="#3856BE"/>
<path transform="translate(463,1452)" d="m0 0h12v21l-3 5-4 2h-33l-5-2-3-5 1-12h1l1 14 6 2 24 1 10-1 2-2 1-4v-16l-10 1z" fill="#315BBF"/>
<path transform="translate(730,1386)" d="m0 0h26l1 2-33 2-3 2-2 31-2 1-1-22 1-10 6-5z" fill="#4D75B8"/>
<path transform="translate(1011,792)" d="m0 0h2l-2 6-7 6-9 5-10 1h-10-3l3-3 11-1 3-2 5-1 5-3 5-1 5-5z" fill="#9073B5"/>
<path transform="translate(1214,1394)" d="m0 0h29l8 4 2 6v34l-2 2v-33l-2-6-4-3-7-2h-15l-16 4-1 3h-2l2-5z" fill="#6789B1"/>
<path transform="translate(554,1171)" d="m0 0h25v3h-25v79h-2v-80z" fill="#5C72B6"/>
<path transform="translate(1332,1408)" d="m0 0h1l1 23v57h7l1 2-5 1-5-1z" fill="#8A69B1"/>
<path transform="translate(1211,1171)" d="m0 0h25l1 4-26-1 1 32h-3l-1-26-1-2 2-6z" fill="#687CB3"/>
<path transform="translate(915,1241)" d="m0 0h3l1 17 3 4v2l6 2h23l8-2 6-1-1 4-2 1h-39l-5-5-3-4z" fill="#4663BB"/>
<path transform="translate(444,1220)" d="m0 0h2v35l4 6 7 4 5 1h23l6-2 4 1-5 3-26 1-10-1-9-7-1-2-1-38z" fill="#5B60B7"/>
<path transform="translate(735,1159)" d="m0 0h38l6 4 3 9v5l-7-14-5-1h-34l-5 3-4 8h-1l1-7 4-5z" fill="#0539CA"/>
<path transform="translate(869,1398)" d="m0 0h4v29l-3 2h-19l-3-2-1-4v-24h2l1 26 21 1v-26z" fill="#3E5BBD"/>
<path transform="translate(1305,1122)" d="m0 0h1v37h31l1 2h-32l-3-3v-16l1-16z" fill="#345BBE"/>
<path transform="translate(1332,1174)" d="m0 0h2l-1 93h-1l-1-59v-33z" fill="#6585B2"/>
<path transform="translate(288,1124)" d="m0 0h15v35h21v6l-1-4h-19l-3-2-1-32-13-1z" fill="#4F62B9"/>
<path transform="translate(221,1320)" d="m0 0 2 1 1 3v8l-1 1-1 108h-1v-119l-2-1z" fill="#638DB2"/>
<path transform="translate(642,1159)" d="m0 0 2 3-5 2-2 4-1 7-1 19-1 56h-1v-79l3-9z" fill="#8C68B1"/>
<path transform="translate(136,1159)" d="m0 0h1v15h-30v28h-1v-29l4-2h25l-1-11z" fill="#5D80B4"/>
<path transform="translate(636,1386)" d="m0 0h35l10 2 3 4-1 14-1 5h-1l-1-20-2-1-10-1h-32z" fill="#5062B9"/>
<path transform="translate(1133,1328)" d="m0 0h26l11 4 2 2v6h-1l-1-5-7-3h-30l-5 2-2 5-2-3 2-5z" fill="#5E81B3"/>
<path transform="translate(923,1159)" d="m0 0h33l3 2-34 1-5 3-2 9v7l-1 5-2-3-1-2v-8l4-10z" fill="#1846C5"/>
<path transform="translate(882,1468)" d="m0 0h1v6l-4 5-7 2h-25l-8-2v-4l4 2h33l3-1 2-5z" fill="#6087B3"/>
<path transform="translate(1450,1271)" d="m0 0h1l1 33v36h-15v-3h12z" fill="#083BC9"/>
<path transform="translate(956,1235)" d="m0 0h13l1 1v19l-3 7-2 2-1-2 2-9v-15l-9 1v15l-4-1h2v-17z" fill="#5F7EB3"/>
<path transform="translate(539,1159)" d="m0 0h47l5 5 3 7-1 2h-2l-5-10-4-1-43-1z" fill="#153BC6"/>
<path transform="translate(671,1399)" d="m0 0h1v69l-4 1 1-2 1-58z" fill="#6785B2"/>
<path transform="translate(1451,1215)" d="m0 0h1l1 33 1 3h26l-2 3h-25l-3-3v-35z" fill="#4E6AB8"/>
<path transform="translate(1102,1172)" d="m0 0h1l1 66 1 28 1 2h-4z" fill="#1B4AC4"/>
<path transform="translate(1159,1431)" d="m0 0h13l-1 4v-2l-9 1v43l-5 2v-2h2z" fill="#2152C2"/>
<path transform="translate(920,1389)" d="m0 0 2 3v37l-2 4h-1v-43z" fill="#3C6ABC"/>
<path transform="translate(1490,1259)" d="m0 0h2l-2 5-7 4-19 1h-12v35h-1l-1-36 2-1 28-2 8-3z" fill="#5375B7"/>
<path transform="translate(191,1331)" d="m0 0h23v43h-1l-1-19v-23l-22 2-1 6-2-1v-7z" fill="#6D70B4"/>
<path transform="translate(615,924)" d="m0 0h5l1 1v7l-4 6-3 1-5-2 3-9z" fill="#D4DEEF"/>
<path transform="translate(1218,1405)" d="m0 0h21l2 2v30h-18v-1h17l-1-27h-22z" fill="#5D78B5"/>
<path transform="translate(307,925)" d="m0 0h4l1 3-7 1-7 6-3 9 1 4 7-4 6-4 2 1-3 3-7 6-7 1-3-3 3-10 3-6 8-6z" fill="#3663BD"/>
<path transform="translate(847,1386)" d="m0 0h19l11 1 6 4 1 7-4-5-4-3-8-1h-18l-10 2-3 3v-3l4-4z" fill="#5F85B3"/>
<path transform="translate(312,864)" d="m0 0 7 1-1 6-4 6-1 3-6-1-1-2 3-5z" fill="#F9FAFC"/>
<path transform="translate(341,1386)" d="m0 0h11l-1 2h-6l1 18 2 9 1 21h-1l-7-47z" fill="#5270B7"/>
<path transform="translate(726,1255)" d="m0 0 5 5 6 5 5 1h26l10-5 3-2-2 4-6 5h-37l-10-7z" fill="#5276B7"/>
<path transform="translate(354,941)" d="m0 0v3l-5 5-1 4 4 2-1 1h-12l-5-5v-7l3 3 5 4 4-2 4-5z" fill="#5A79BE"/>
<path transform="translate(287,841)" d="m0 0 3 1-8 5-5 5-5 6-3 6v8l5 4 7 4 1 2-6-1-8-6-1-2v-10l5-10 9-9z" fill="#5576B6"/>
<path transform="translate(340,842)" d="m0 0 7 4 5 6 2 5v15l-3 6h-2l2-6v-15l-3-5v-2h-2v-2l-6-2-1 1h-10l1-2 7-1z" fill="#4D6CBA"/>
<path transform="translate(287,928)" d="m0 0h2l-1 10v9l2 7 1 1h6l4-2h3l-1 3-7 3h-5l-6-7v-18z" fill="#547AB6"/>
<path transform="translate(680,1476)" d="m0 0v3l-1 1-10 1h-21v13h-1l-1-15 1-1 32-1z" fill="#6D7FB2"/>
<path transform="translate(874,1168)" d="m0 0h1l1 99-4 1 1-2z" fill="#093BC9"/>
<path transform="translate(771,658)" d="m0 0v3l-10 9-18 18 34 1v1h-38v-2l8-7 22-22z" fill="#3A7DC0"/>
<path transform="translate(1170,1481)" d="m0 0 1 3-5 4-5 2h-29l-5-3-2-4 2-1 2 4 5 1h26l7-3z" fill="#536EB7"/>
<path transform="translate(496,1235)" d="m0 0 3 1v20l-2 7h-1v-25l-12 1v-3z" fill="#6A7BB3"/>
<path transform="translate(1437,1159)" d="m0 0h45l6 2v1l-48-1z" fill="#1948C5"/>
<path transform="translate(535,941)" d="m0 0 3 1-5 5-1 3 12-6v6l-6 2 3 1 5-3v3l-3 3h-8l-4-4-1-5z" fill="#5175B7"/>
<path transform="translate(266,1386)" d="m0 0 32 1v2l-35 1-3 3-1 11h-1v-12l5-5z" fill="#668BB1"/>
<path transform="translate(267,930)" d="m0 0 2 1-1 6-3 14-6-2v-6z" fill="#F2F4F7"/>
<path transform="translate(407,918)" d="m0 0h8l3 2-2 4h-7l-10 8-5 3 1-4 4-3 4-2 3-4-3-1 1-2z" fill="#546FB7"/>
<path transform="translate(519,1406)" d="m0 0h1v74l-1 1h-6l2-1v-2h4l-1-19z" fill="#7756B3"/>
<path transform="translate(1240,1206)" d="m0 0 6 1 5 5 1 6v25l-2 4-1-28-2-7v-2l-5-2z" fill="#767BB1"/>
<path transform="translate(1157,1341)" d="m0 0 5 1v21h10v3h-13v-24z" fill="#6186B3"/>
<path transform="translate(373,1398)" d="m0 0h1v16l-2 10-2 19-3-1 1-11z" fill="#4E74B8"/>
<path transform="translate(764,1386)" d="m0 0h29l6 3 3 3v2l-3-1-2-3-7-1h-27z" fill="#4A6FB8"/>
<path transform="translate(1332,1328)" d="m0 0h12v4l-3 1v-2h-7v20l-1 7h-1z" fill="#6B6BB4"/>
<path transform="translate(1286,1327)" d="m0 0 12 1-1 44h-1v-41h-10z" fill="#6C70B2"/>
<path transform="translate(563,1478)" d="m0 0h35l-1 2-7 1h-25z" fill="#6787B2"/>
<path transform="translate(647,1171)" d="m0 0h24l3 3-2 1h-25l-2 1 1-4z" fill="#6289B2"/>
<path transform="translate(136,1256)" d="m0 0h1v12l-43 1-1-1v-7l3-1v7h40z" fill="#3E51BE"/>
<path transform="translate(483,1172)" d="m0 0 3 2v32h-5l3-1v-30h-7v-2z" fill="#4266BB"/>
<path transform="translate(288,1148)" d="m0 0 3 1v9l-4 3h-19l-1 6h-1v-8h22z" fill="#4069BB"/>
<path transform="translate(294,1452)" d="m0 0h9l-1 3h-6l1 4v7l-2 2-25 1v-3h24z" fill="#3860BD"/>
<path transform="translate(462,1398)" d="m0 0 2 2v26l-1 1h-24v-3l23 1z" fill="#5172B7"/>
<path transform="translate(1196,1235)" d="m0 0 15 1v16l24 1v1h-25l-1-1v-15h-13z" fill="#6881B2"/>
<path transform="translate(682,1437)" d="m0 0h1l1 34-2 5h-1v-36z" fill="#6385B2"/>
<path transform="translate(94,1083)" d="m0 0h2v30h-1l-1-9h-1l-1-11v-9z" fill="#6776B4"/>
<path transform="translate(801,1453)" d="m0 0h1v28h-12l-1-1v-16h1v14h9z" fill="#6175B4"/>
<path transform="translate(591,1256)" d="m0 0 3 1-4 7-4 4h-30v-1l25-2 7-3z" fill="#4D72B9"/>
<path transform="translate(242,929)" d="m0 0 2 1v8l-1 6-6-3v-8l3-3z" fill="#EAECF4"/>
<path transform="translate(882,1430)" d="m0 0 1 4-10 5h-24v4l-2-1 1-5 27-1 6-4z" fill="#546FB7"/>
<path transform="translate(188,1457)" d="m0 0h1l1 8 23 1v3h-14l-11-1z" fill="#466EB9"/>
<path transform="translate(767,1235)" d="m0 0h14l1 4-11-1v13l-2 2-1-1v-13z" fill="#6487B2"/>
<path transform="translate(1239,1159)" d="m0 0 9 2 3 5 1 12v10h-1l-2-8-1-3-1-11-2-3-6-2z" fill="#5A79B5"/>
<path transform="translate(507,1320)" d="m0 0h13v2h-11l-1 55h-1l-1-56z" fill="#7958B2"/>
<path transform="translate(727,1430)" d="m0 0h1l1 48-3-2z" fill="#638EB2"/>
<path transform="translate(1214,1394)" d="m0 0h27v1l-18 1-16 4-1 3h-2l2-5z" fill="#4465BB"/>
<path transform="translate(1199,1262)" d="m0 0 9 3 10 1 19 1v1l-11 1h-16l-6-2z" fill="#3C60BD"/>
<path transform="translate(331,819)" d="m0 0 7 1 1 2-2 5h-1l-1-5-2 3-6 12-2 5-1-3 4-12z" fill="#5570B8"/>
<path transform="translate(531,934)" d="m0 0 1 2-7 16 9 6-4 1-8-5v-5l6-11z" fill="#5074BA"/>
<path transform="translate(832,1232)" d="m0 0h1l1 36-1 1h-13l2-2h10z" fill="#725DB4"/>
<path transform="translate(780,1210)" d="m0 0 1 4-5 5-3 2-12 1h-22v-2l26-1 10-2 4-5z" fill="#5178B6"/>
<path transform="translate(349,1436)" d="m0 0 2 1 3 15 4 14v9l-2-4-7-30z" fill="#5273B7"/>
<path transform="translate(1030,1356)" d="m0 0h2l1 30h12l2 1-1 3-3-1h-12l-1-3z" fill="#7779B1"/>
<path transform="translate(730,1386)" d="m0 0h26l1 2-30 1v-2z" fill="#6074B4"/>
<path transform="translate(740,1171)" d="m0 0 24 1v1l-23 1-1 32h-1v-34z" fill="#6C81B1"/>
<path transform="translate(495,1216)" d="m0 0 2 1-4 3-3 1h-31v7h-1l-1-8 5-1h22l8-1z" fill="#5C7BB4"/>
<path transform="translate(258,954)" d="m0 0 1 4-5 21-2 3-2 6-3-1 4-9 6-22z" fill="#4668BA"/>
<path transform="translate(507,941)" d="m0 0 2 1-1 5-3 6-6 3h-3l6-7z" fill="#FEFEFE"/>
<path transform="translate(1180,908)" d="m0 0 2 1-9 16-4 4-3-1h2l2-4 2-7 4-1 2-6z" fill="#8E72B5"/>
<path transform="translate(1204,1474)" d="m0 0h2l2 10 9 3 6 1-2 2h-7l-7-3-2-2z" fill="#405EBC"/>
<path transform="translate(428,1461)" d="m0 0h1l1 14 6 2 19 1v1l-20 1-5-2-3-5z" fill="#5F77B4"/>
<path transform="translate(1018,1385)" d="m0 0v3l-16 1v10l-3-1v-11l4-1h10z" fill="#4163BB"/>
<path transform="translate(915,1212)" d="m0 0h1l1 29h-2v14h-1v-21z" fill="#6880B2"/>
<path transform="translate(1049,1159)" d="m0 0h15v29h-1l-1-26-13-1z" fill="#3C65BC"/>
<path transform="translate(1305,1101)" d="m0 0h1v21l-1 4-1 13h-1v-19z" fill="#7A6CB1"/>
<path transform="translate(495,876)" d="m0 0 2 1-8 6-6 2h-7l-9-3v-2l7 1 3 2 8-1z" fill="#4867BA"/>
<path transform="translate(545,318)" d="m0 0 2 1-5 6-6 8-6 4-2 1 2-4 11-12z" fill="#2E84C7"/>
<path transform="translate(1144,1175)" d="m0 0h1l1 15h11v-8h1v10l-1 1h-11l-3-1z" fill="#375CBE"/>
<path transform="translate(642,1159)" d="m0 0 2 3-5 2-2 4-2 13h-1l-1-10 3-9z" fill="#4F76B7"/>
<path transform="translate(336,921)" d="m0 0 4 1v13h-4l-1-5z" fill="#FEFEFE"/>
<path transform="translate(536,861)" d="m0 0h4v2l-19 9-3 2 2-4 4-3z" fill="#5673B6"/>
<path transform="translate(1133,1342)" d="m0 0h3v22h-2l-1-12z" fill="#6567B5"/>
<path transform="translate(106,1111)" d="m0 0h1l1 50h-3z" fill="#7D51B2"/>
<path transform="translate(1018,1463)" d="m0 0h1v9l1 6 11 1v2h-14v-11z" fill="#2049C3"/>
<path transform="translate(491,1264)" d="m0 0 4 1-5 3-26 1-4-2 25-1z" fill="#2D53C0"/>
<path transform="translate(591,967)" d="m0 0h1l1 8 2 3-2 2-1 6 4-1v2l-4 1-2-2v-18z" fill="#476ABA"/>
<path transform="translate(309,940)" d="m0 0 2 1-3 3-7 6-7 1-3-3v-2h2v2l6-1z" fill="#4F78B7"/>
<path transform="translate(221,1441)" d="m0 0h1v27h2l-1 8-2 3-2-1 1-1z" fill="#6157B7"/>
<path transform="translate(474,1398)" d="m0 0h1v36l-5 3-4-1h2v-2l5-1z" fill="#1948C4"/>
<path transform="translate(477,950)" d="m0 0 3 2v2l4 2 3 1-1-3h4v3l3 1v1h-10l-4-2z" fill="#3056BF"/>
<path transform="translate(269,923)" d="m0 0 3 2-2 8-3-2-3 5-2-2 5-10z" fill="#7994CC"/>
<path transform="translate(179,1160)" d="m0 0h4v2l-3 1-3 7-1 19h-1l-1-19 4-9z" fill="#596FB6"/>
<path transform="translate(1237,1179)" d="m0 0h1l1 11 13 1-1 2h-14l-1-1v-8z" fill="#556BBA"/>
<path transform="translate(528,841)" d="m0 0h5l-3 2-6 3-3 4-1 3-8 3-2 1 2-4 7-4 4-6z" fill="#4F6DB8"/>
<path transform="translate(273,1386)" d="m0 0h27l5 4 1 4-3-1-2-3-3-1v-2h-25z" fill="#3155BF"/>
<path transform="translate(444,1258)" d="m0 0 5 2 8 5 5 1-2 2h-6l-9-7z" fill="#577EB5"/>
<path transform="translate(1319,1171)" d="m0 0h11l3 3-2 1-21-1v-1l8-1z" fill="#3C6BBB"/>
<path transform="translate(1303,1086)" d="m0 0 1 4h2v11l-1 8-2-4z" fill="#6D82B1"/>
<path transform="translate(315,859)" d="m0 0 1 4h8l-6 11-5 5 2-6 3-4 1-4-6-1z" fill="#5475B9"/>
<path transform="translate(1338,1160)" d="m0 0 4 1 3 9v18h-1l-1-14-2-5-1-6-2-1z" fill="#5B66B7"/>
<path transform="translate(1149,1161)" d="m0 0 6 1 3 9v9l-2-3-4-13v-2z" fill="#476BBA"/>
<path transform="translate(772,1159)" d="m0 0 6 3 3 5 1 10-7-14-6-2z" fill="#4E79B7"/>
<path transform="translate(389,873)" d="m0 0 3 2-11 6-2 2-4-1-4-5h3l2 2 5-1z" fill="#4F6EBA"/>
<path transform="translate(872,1453)" d="m0 0h11l1 4-1-2h-9v13l-5 1 1-2h2z" fill="#3C5ABD"/>
<path transform="translate(962,1263)" d="m0 0h3l-1 4-2 1h-18v-1l13-2z" fill="#416DBA"/>
<path transform="translate(645,1245)" d="m0 0h1v23l-2 1h-10l-1-4 2 1h8l1-2z" fill="#6279B4"/>
<path transform="translate(469,950)" d="m0 0 3 1-5 4-7 4h-4v-7l2 4z" fill="#536FB7"/>
<path transform="translate(287,841)" d="m0 0 3 1-8 5-5 5-5 4 1-4 8-8z" fill="#5F7AB4"/>
<path transform="translate(221,1320)" d="m0 0 2 1 1 3v8l-1 1-1 10h-1v-21l-2-1z" fill="#5960B7"/>
<path transform="translate(585,1159)" d="m0 0 4 2 5 10-1 2h-2l-5-10-5-2z" fill="#5276B7"/>
<path transform="translate(381,1421)" d="m0 0 1 4-4 20-3 4v-5l2-7z" fill="#5770B6"/>
<path transform="translate(373,1398)" d="m0 0h1v16l-2 10-2-2z" fill="#5F76B5"/>
<path transform="translate(1241,1394)" d="m0 0 9 3 3 7v6l-2-3-2-6-4-3-7-2z" fill="#6073B5"/>
<path transform="translate(266,1386)" d="m0 0h7l-2 1v2l-10 2-1 2-1 11h-1v-12l5-5z" fill="#606FB5"/>
<path transform="translate(491,952)" d="m0 0h7l-1 4 1 2-5 1-3-2-1-4z" fill="#9AB0D0"/>
<path transform="translate(538,873)" d="m0 0h3v5l-3 2-3-3-15-1v-1l14-1z" fill="#728BCC"/>
<path transform="translate(278,874)" d="m0 0 18 1-1 4-6 4h-2v-2l4-4-13-1z" fill="#5078B9"/>
<path transform="translate(430,841)" d="m0 0 3 1-7 6-3 3-5 3 2-5 8-7z" fill="#547AB6"/>
<path transform="translate(586,924)" d="m0 0h3l1 6-6 7-1-3z" fill="#9AA9D5"/>
<path transform="translate(305,1451)" d="m0 0 2 1v13l-1 5h-1v-14l-3-1 1-3z" fill="#6587B2"/>
<path transform="translate(606,951)" d="m0 0 1 2-5 9-2 7h-1l-1-8 3-3 1-6z" fill="#4764BA"/>
<path transform="translate(585,946)" d="m0 0 7 5 3 4v8l-2 2-1-9-7-8z" fill="#536AB7"/>
<path transform="translate(888,580)" d="m0 0h5l2 5-3 3-4-1z" fill="#002FF1"/>
<path transform="translate(682,1391)" d="m0 0 2 1-1 14-1 5h-1v-19z" fill="#6386B2"/>
<path transform="translate(1451,1332)" d="m0 0h1v8h-15v-3h12z" fill="#3452BF"/>
<path transform="translate(1240,1206)" d="m0 0 6 1 5 5v8l-3-2-1-8-5-2z" fill="#476FB9"/>
<path transform="translate(359,1159)" d="m0 0 4 1v2l-7 3-3 5-3 1 2-6z" fill="#5270B7"/>
<path transform="translate(555,953)" d="m0 0h12v3l-2 1-9-1z" fill="#FEFEFE"/>
<path transform="translate(287,928)" d="m0 0h2l-1 10v11h-2l-1-15z" fill="#5C7BB4"/>
<path transform="translate(422,854)" d="m0 0 4 1 2 2-1 12-4-3 2-4v-3l-3-2z" fill="#3F64BC"/>
<path transform="translate(226,1169)" d="m0 0 4 1-1 15-2 1z" fill="#556AB7"/>
<path transform="translate(1133,1328)" d="m0 0 3 1zm-3 1 7 1-4 2-5 2-2 5-2-3 2-5z" fill="#4B6FB8"/>
<path transform="translate(554,928)" d="m0 0h3l-1 5-5 10-4 2-1-3 5-5 3-5z" fill="#4B6BB9"/>
<path transform="translate(242,924)" d="m0 0h4l-1 16-2-4v-6h-2v-5z" fill="#466DBA"/>
<path transform="translate(347,868)" d="m0 0h1l-1 7v4l3-1-2 4-4 1-1-5z" fill="#516FB8"/>
<path transform="translate(464,857)" d="m0 0 6 1 3 2 10 2 2 3-16-4-5-2z" fill="#5173B7"/>
<path transform="translate(1332,1478)" d="m0 0 2 2v8h7l1 2-5 1-5-1z" fill="#6382B3"/>
<path transform="translate(443,1203)" d="m0 0h2l1 17h-3z" fill="#678FB4"/>
<path transform="translate(673,1174)" d="m0 0h1l2 16 9 1v1h-12z" fill="#274EC2"/>
<path transform="translate(310,1171)" d="m0 0h14v3l-19-1v-1z" fill="#608BB2"/>
<path transform="translate(451,1160)" d="m0 0h4v2l-5 1-2 5-3 7h-1l1-8 3-5z" fill="#4D6BB8"/>
<path transform="translate(312,943)" d="m0 0h2l-1 4-8 7-2-2z" fill="#5D7EB4"/>
<path transform="translate(259,1470)" d="m0 0 7 7 8 1v1l-8 1-6-4z" fill="#5974B6"/>
<path transform="translate(848,1459)" d="m0 0h1v8h21v1h-23l-1-4z" fill="#2F43C1"/>
<path transform="translate(735,1159)" d="m0 0 1 3-5 3-4 8h-1l1-7 4-5z" fill="#4C6EB8"/>
<path transform="translate(534,854)" d="m0 0v3l-5 4-5 2-1 1h-5l2-4 2 1 10-5z" fill="#596DB7"/>
<path transform="translate(583,1398)" d="m0 0h9v9h-2l-1 2v-10h-6z" fill="#6F71B2"/>
<path transform="translate(1245,1263)" d="m0 0 1 3-4 2-13-1v-1l9-1z" fill="#5F7AB4"/>
<path transform="translate(564,929)" d="m0 0 1 2-3 6-5 9-2-1 2-6z" fill="#6480C0"/>
<path transform="translate(463,1465)" d="m0 0 1 3-4 1-22-1v-2h24z" fill="#325DBE"/>
<path transform="translate(1160,1463)" d="m0 0h1l1 14-5 2v-2h2v-13z" fill="#2C5AC0"/>
<path transform="translate(874,1387)" d="m0 0 5 1 4 3 1 7-4-5-4-3-3-2z" fill="#4164BB"/>
<path transform="translate(1157,1341)" d="m0 0 5 1-1 14h-2v-14z" fill="#2C5AC0"/>
<path transform="translate(287,1264)" d="m0 0 4 1 9 2-2 2h-10z" fill="#5F73B8"/>
<path transform="translate(1250,1168)" d="m0 0h1l1 10v10h-1l-2-8-1-3z" fill="#405ABD"/>
<path transform="translate(602,703)" d="m0 0h1l1 5h5l-4 6-3 1z" fill="#6B1EBC"/>
<path transform="translate(1126,1482)" d="m0 0 3 4 11 2-1 2h-7l-5-3-2-4z" fill="#3C61BC"/>
<path transform="translate(765,1477)" d="m0 0 1 3-1 1h-11l1-3z" fill="#5D81B4"/>
<path transform="translate(930,1459)" d="m0 0h1l1 21-4 1-5-1v-1l6-1z" fill="#505EB9"/>
<path transform="translate(341,1386)" d="m0 0h11l-1 2h-6l-1 6-2-3z" fill="#2152C2"/>
<path transform="translate(780,1259)" d="m0 0v3l-7 6h-7l2-2 10-5z" fill="#4169BB"/>
<path transform="translate(128,1253)" d="m0 0h9l-1 14h-2v-13h-6z" fill="#6084B3"/>
<path transform="translate(509,943)" d="m0 0h1l-1 7-4 5-7 2 2-3 5-2z" fill="#4773B9"/>
<path transform="translate(311,919)" d="m0 0 4 2 2 8-3-3-2-4h-11l-4 1 3-3z" fill="#5B6DB6"/>
<path transform="translate(407,918)" d="m0 0h8l2 2-3 2-7-1z" fill="#FEFEFE"/>
<path transform="translate(882,1468)" d="m0 0h1v6l-4 5-4 1-2-2 6-2 2-5z" fill="#4F79B7"/>
<path transform="translate(507,1320)" d="m0 0h13v2h-11l-1 14h-1l-1-15z" fill="#2243C4"/>
<path transform="translate(1490,1259)" d="m0 0h2l-2 5-7 4-4-2 9-4z" fill="#6277B4"/>
<path transform="translate(914,1173)" d="m0 0 3 1 1 7-1 5-2-3-1-2z" fill="#5871B6"/>
<path transform="translate(396,1160)" d="m0 0 6 1 3 7v9h-1l-2-11-2-3-4-1z" fill="#3D5CBD"/>
<path transform="translate(288,1148)" d="m0 0 3 1v9l-3 2z" fill="#658AB2"/>
<path transform="translate(1301,1082)" d="m0 0 5 1v7h-2l-2-5-9-1v-1z" fill="#3861BD"/>
<path transform="translate(382,841)" d="m0 0 4 1-8 6-4 1 2-4z" fill="#567CB5"/>
<path transform="translate(555,1472)" d="m0 0 6 5 9 2v1h-11l-4-4z" fill="#3259BF"/>
<path transform="translate(882,1430)" d="m0 0 1 4-10 5h-9v-1l11-2 6-4z" fill="#3B58BD"/>
<path transform="translate(352,1386)" d="m0 0 2 1 1 11-2 1-2-12z" fill="#516CB8"/>
<path transform="translate(293,841)" d="m0 0 6 1 1 3-1 8-3 1-3-2 5-1-2-7z" fill="#5274B7"/>
<path transform="translate(718,1477)" d="m0 0 2 1h7l3 3h-13z" fill="#4760BA"/>
<path transform="translate(387,1386)" d="m0 0 2 2-3 10h-2l1-11z" fill="#627AB4"/>
<path transform="translate(1031,1384)" d="m0 0 2 2h12l2 1-1 3-3-1h-12l-1-3z" fill="#5C82B4"/>
<path transform="translate(956,1235)" d="m0 0 3 3-2 1v15l-4-1h2v-17z" fill="#5E5BB7"/>
<path transform="translate(444,1200)" d="m0 0 3 1v13h-2z" fill="#7360B3"/>
<path transform="translate(1009,1159)" d="m0 0h14l-1 4-2-1-9-1z" fill="#234EC2"/>
<path transform="translate(254,973)" d="m0 0 1 2-3 7-2 6-3-1 4-9z" fill="#526CB8"/>
<path transform="translate(246,970)" d="m0 0 2 3-2 13-2-1v-7z" fill="#4B6EB9"/>
<path transform="translate(271,855)" d="m0 0 1 3-3 6v8l2 3h-3l-1-2v-10z" fill="#4964BA"/>
<path transform="translate(323,842)" d="m0 0 1 4-3 7-4 6-1-2z" fill="#4D6DB9"/>
<path transform="translate(282,851)" d="m0 0h3v2l-4 4-4 7-1-3 4-8z" fill="#5172B7"/>
<path transform="translate(417,729)" d="m0 0 6 1 13 6-4 1-15-7z" fill="#6E2BBA"/>
<path transform="translate(1135,1464)" d="m0 0h1v14l-3-2 1-11z" fill="#6381B2"/>
<path transform="translate(790,1386)" d="m0 0 6 1 6 5v2l-3-1-2-3-7-1z" fill="#5973B6"/>
<path transform="translate(1451,1175)" d="m0 0h16v1l-13 1v3l-4-1z" fill="#6484B2"/>
<path transform="translate(285,941)" d="m0 0h1v8h2l4 8h-3l-4-5z" fill="#385FBD"/>
<path transform="translate(404,925)" d="m0 0 2 1-7 6-5 3 1-4 4-3 4-2z" fill="#426DBE"/>
<path transform="translate(491,873)" d="m0 0 2 1v2h-25v-1l22-1z" fill="#4969BA"/>
<path transform="translate(771,658)" d="m0 0v3l-10 9-3 2 2-4 9-9z" fill="#3376CE"/>
<path transform="translate(678,1159)" d="m0 0 5 2 3 3 2 7h-2l-4-8-5-2z" fill="#4863BA"/>
<path transform="translate(136,1159)" d="m0 0h1v14l-2-2-1-11z" fill="#3F6ABB"/>
<path transform="translate(495,876)" d="m0 0 2 1-8 6-7 2v-2l10-5z" fill="#5D71B6"/>
<path transform="translate(529,851)" d="m0 0 4 1-4 3-7 4v-5l5-1z" fill="#4766BA"/>
<path transform="translate(334,851)" d="m0 0h8v1h-6v2l-6 2-4 3 2-5z" fill="#3E5ABD"/>
<path transform="translate(439,841)" d="m0 0 5 1 5 5 2 5-5-5-7-5z" fill="#4671B9"/>
<path transform="translate(554,1460)" d="m0 0 3 3v10l-3-1z" fill="#756AB2"/>
<path transform="translate(1161,1431)" d="m0 0h11l-1 4v-2l-11 1z" fill="#274DC2"/>
<path transform="translate(764,1386)" d="m0 0h13l-4 3h-10z" fill="#638EB2"/>
<path transform="translate(307,925)" d="m0 0h4l1 3-7 1-4 2 2-4z" fill="#496AB9"/>
<path transform="translate(347,857)" d="m0 0 2 1-1 10-2 1v-11z" fill="#6687B2"/>
<path transform="translate(441,851)" d="m0 0 4 1-1 9-2 1z" fill="#5373B7"/>
<path transform="translate(1285,1487)" d="m0 0 12 1v2l-3 1-9-1z" fill="#637BB3"/>
<path transform="translate(1247,1485)" d="m0 0 3 1-4 3-8 1v-2z" fill="#3560BE"/>
<path transform="translate(687,1187)" d="m0 0 2 1-1 5h-12v-1h9z" fill="#627DB3"/>
<path transform="translate(136,1082)" d="m0 0 1 4-3-1-17-1v-1z" fill="#638EB2"/>
<path transform="translate(477,950)" d="m0 0 3 2v2l4 2v3l-5-2z" fill="#5E7EB4"/>
<path transform="translate(334,944)" d="m0 0 7 7-1 2-6-2z" fill="#244EC2"/>
</svg>
